<svg version="1.1" viewBox="0.0 0.0 64.0 64.0" fill="none" stroke="none" stroke-linecap="square" stroke-miterlimit="10" xmlns:xlink="http://www.w3.org/1999/xlink" xmlns="http://www.w3.org/2000/svg"><clipPath id="p.0"><path d="m0 0l64.0 0l0 64.0l-64.0 0l0 -64.0z" clip-rule="nonzero"/></clipPath><g clip-path="url(#p.0)"><path fill="#000000" fill-opacity="0.0" d="m0 0l64.0 0l0 64.0l-64.0 0z" fill-rule="evenodd"/><path fill="#000000" fill-opacity="0.0" d="m17.606508 17.606298l28.787401 0l0 28.787401l-28.787401 0z" fill-rule="evenodd"/><path stroke="#0096cd" stroke-width="3.0" stroke-linejoin="round" stroke-linecap="butt" d="m17.606508 17.606298l28.787401 0l0 28.787401l-28.787401 0z" fill-rule="evenodd"/><path fill="#000000" fill-opacity="0.0" d="m32.00021 17.606298l0 -15.11811" fill-rule="evenodd"/><path stroke="#0096cd" stroke-width="2.0" stroke-linejoin="round" stroke-linecap="butt" d="m32.00021 17.606298l0 -7.53811" fill-rule="evenodd"/><path stroke="#0096cd" stroke-width="2.0" stroke-linecap="butt" d="m32.00021 3.488189c1.8170166 0 3.290001 1.4729831 3.290001 3.2899997c0 1.8170166 -1.4729843 3.29 -3.290001 3.29c-1.8170166 0 -3.289999 -1.4729834 -3.289999 -3.29c0 -1.8170166 1.4729824 -3.2899997 3.289999 -3.2899997z" fill-rule="nonzero"/><path fill="#000000" fill-opacity="0.0" d="m46.39391 32.0l15.118111 0" fill-rule="evenodd"/><path stroke="#0096cd" stroke-width="2.0" stroke-linejoin="round" stroke-linecap="butt" d="m46.39391 32.0l7.538109 0" fill-rule="evenodd"/><path stroke="#0096cd" stroke-width="2.0" stroke-linecap="butt" d="m60.51202 32.0c0 1.8170166 -1.4729805 3.290001 -3.289997 3.290001c-1.8170166 0 -3.290001 -1.4729843 -3.290001 -3.290001c0 -1.8170166 1.4729843 -3.289999 3.290001 -3.289999c1.8170166 0 3.289997 1.4729824 3.289997 3.289999z" fill-rule="nonzero"/><path fill="#000000" fill-opacity="0.0" d="m32.00021 45.96063l0 15.118111" fill-rule="evenodd"/><path stroke="#0096cd" stroke-width="2.0" stroke-linejoin="round" stroke-linecap="butt" d="m32.00021 45.96063l0 7.538109" fill-rule="evenodd"/><path stroke="#0096cd" stroke-width="2.0" stroke-linecap="butt" d="m32.00021 60.07874c-1.8170166 0 -3.289999 -1.4729805 -3.289999 -3.289997c0 -1.8170166 1.4729824 -3.290001 3.289999 -3.290001c1.8170166 0 3.290001 1.4729843 3.290001 3.290001c0 1.8170166 -1.4729843 3.289997 -3.290001 3.289997z" fill-rule="nonzero"/><path fill="#000000" fill-opacity="0.0" d="m17.981836 32.0l-15.118109 0" fill-rule="evenodd"/><path stroke="#0096cd" stroke-width="2.0" stroke-linejoin="round" stroke-linecap="butt" d="m17.981838 32.0l-7.5381117 0" fill-rule="evenodd"/><path stroke="#0096cd" stroke-width="2.0" stroke-linecap="butt" d="m3.8637269 32.0c0 -1.8170166 1.4729831 -3.289999 3.2899997 -3.289999c1.8170166 0 3.29 1.4729824 3.29 3.289999c0 1.8170166 -1.4729834 3.290001 -3.29 3.290001c-1.8170166 0 -3.2899997 -1.4729843 -3.2899997 -3.290001z" fill-rule="nonzero"/><path fill="#000000" fill-opacity="0.0" d="m17.613981 46.401253l-10.708661 10.708664" fill-rule="evenodd"/><path stroke="#0096cd" stroke-width="2.0" stroke-linejoin="round" stroke-linecap="butt" d="m17.613981 46.401253l-5.348792 5.348793" fill-rule="evenodd"/><path stroke="#0096cd" stroke-width="2.0" stroke-linecap="butt" d="m7.6124268 56.402805c-1.2848248 -1.2848244 -1.2848248 -3.3679352 0 -4.6527596c1.2848253 -1.2848282 3.367938 -1.2848282 4.6527624 0c1.2848253 1.2848244 1.2848253 3.3679352 0 4.6527596c-1.2848244 1.2848244 -3.367937 1.2848244 -4.6527624 0z" fill-rule="nonzero"/><path fill="#000000" fill-opacity="0.0" d="m46.385635 45.960308l10.70866 10.708664" fill-rule="evenodd"/><path stroke="#0096cd" stroke-width="2.0" stroke-linejoin="round" stroke-linecap="butt" d="m46.385635 45.960308l5.348797 5.348793" fill-rule="evenodd"/><path stroke="#0096cd" stroke-width="2.0" stroke-linecap="butt" d="m56.38719 55.96186c-1.2848244 1.2848244 -3.367939 1.2848244 -4.6527634 0c-1.2848244 -1.2848244 -1.2848244 -3.3679352 0 -4.6527596c1.2848244 -1.2848282 3.367939 -1.2848282 4.6527634 0c1.2848244 1.2848244 1.2848244 3.3679352 0 4.6527596z" fill-rule="nonzero"/><path fill="#000000" fill-opacity="0.0" d="m17.613981 17.598104l-10.708661 -10.708662" fill-rule="evenodd"/><path stroke="#0096cd" stroke-width="2.0" stroke-linejoin="round" stroke-linecap="butt" d="m17.613981 17.598104l-5.348792 -5.348793" fill-rule="evenodd"/><path stroke="#0096cd" stroke-width="2.0" stroke-linecap="butt" d="m7.6124268 7.5965495c1.2848253 -1.2848248 3.367938 -1.2848244 4.6527624 4.7683716E-7c1.2848253 1.2848244 1.2848244 3.367937 0 4.6527624c-1.2848253 1.2848244 -3.367938 1.2848244 -4.6527624 0c-1.2848248 -1.2848253 -1.2848248 -3.367938 0 -4.652763z" fill-rule="nonzero"/><path fill="#000000" fill-opacity="0.0" d="m46.01818 18.03905l10.70866 -10.708662" fill-rule="evenodd"/><path stroke="#0096cd" stroke-width="2.0" stroke-linejoin="round" stroke-linecap="butt" d="m46.018185 18.03905l5.348793 -5.348792" fill-rule="evenodd"/><path stroke="#0096cd" stroke-width="2.0" stroke-linecap="butt" d="m56.019737 8.037495c1.2848244 1.2848244 1.2848244 3.367937 0 4.6527624c-1.2848244 1.2848244 -3.3679352 1.2848244 -4.6527634 0c-1.2848244 -1.2848253 -1.2848244 -3.367938 0 -4.6527624c1.2848244 -1.2848248 3.367939 -1.2848248 4.6527634 0z" fill-rule="nonzero"/><path fill="#000000" fill-opacity="0.0" d="m22.3926 22.393702l19.212599 0l0 19.212599l-19.212599 0z" fill-rule="evenodd"/><path stroke="#0096cd" stroke-width="2.0" stroke-linejoin="round" stroke-linecap="butt" d="m22.3926 22.393702l19.212599 0l0 19.212599l-19.212599 0z" fill-rule="evenodd"/></g></svg>